<svg width="30" height="30" viewBox="0 0 30 30" fill="none" xmlns="http://www.w3.org/2000/svg">
<path d="M29.9274 16.8844C29.8664 16.7203 29.7188 16.6008 29.5406 16.5797C14.4656 14.6063 9.21095 4.52815 9.15939 4.42503C9.1273 4.36111 9.08133 4.30518 9.02486 4.26131C8.96838 4.21745 8.90281 4.18675 8.83295 4.17148C8.76308 4.1562 8.69069 4.15673 8.62106 4.17302C8.55142 4.18932 8.48631 4.22096 8.43048 4.26565L0.222666 10.7789C0.0445414 10.9196 -0.00936483 11.1657 0.0890727 11.3672C6.69845 24.8602 19.9875 28.2703 20.1211 28.3055C20.2077 28.3265 20.2984 28.3232 20.3832 28.2959C20.468 28.2686 20.5436 28.2184 20.6016 28.1508L29.843 17.3696C29.9602 17.236 29.9906 17.0508 29.9274 16.8844ZM12.5438 24.1477C12.3 24.1477 12.0094 24.0305 11.9016 23.8078C11.7938 23.5875 11.8406 23.3227 11.993 23.1352C12.1031 22.9992 12.2555 22.9196 12.4172 22.8891C13.3922 22.7063 13.7578 24.1477 12.5438 24.1477ZM14.3461 22.7344C14.1024 22.7344 13.8117 22.6172 13.7039 22.3969C13.5938 22.1766 13.643 21.9117 13.7953 21.7242C13.9055 21.5883 14.0578 21.5086 14.2195 21.4782C15.1992 21.293 15.5602 22.7344 14.3461 22.7344ZM15.9984 21.218C15.7524 21.218 15.4617 21.1008 15.3539 20.8782C15.2461 20.6578 15.2953 20.393 15.4477 20.2055C15.5602 20.0696 15.7102 19.9899 15.8719 19.9594C16.8492 19.7742 17.2125 21.218 15.9984 21.218ZM17.55 19.6172C17.3063 19.6172 17.018 19.5 16.9078 19.2774C16.7977 19.0571 16.8469 18.7922 16.9992 18.6047C17.1094 18.4688 17.2594 18.3891 17.4211 18.3586C18.4008 18.1758 18.7641 19.6172 17.55 19.6172ZM19.2117 17.8641C18.9703 17.9063 18.6633 17.8407 18.518 17.6391C18.375 17.4399 18.3774 17.1703 18.4945 16.9594C18.5813 16.8071 18.7172 16.7039 18.8719 16.6453C19.8047 16.2985 20.407 17.6578 19.2117 17.8641ZM20.6367 16.2328C20.3953 16.2703 20.0906 16.1977 19.9477 15.9961C19.807 15.7946 19.8141 15.525 19.9359 15.3164C20.025 15.1641 20.1609 15.0633 20.318 15.0094C21.2555 14.6766 21.8367 16.0477 20.6367 16.2328Z" fill="#D2D2D2"/>
<path d="M11.1492 16.1976C11.0297 16.2984 11.0414 16.4578 11.175 16.5539C11.175 16.5539 11.6109 16.9172 12.3469 17.4187C13.0898 17.925 13.7906 18.2718 13.7906 18.2718C13.9383 18.3609 14.1586 18.3515 14.2781 18.2484L14.8641 17.7586C14.9883 17.6554 14.9672 17.4984 14.8219 17.4093C14.8219 17.4093 13.9805 16.9406 13.3547 16.5328C12.607 16.0429 12.1898 15.7125 12.1898 15.7125C12.0516 15.6164 11.843 15.6187 11.7211 15.7195L11.1492 16.1976ZM9.56718 17.6273C9.44999 17.7258 9.45233 17.8945 9.57421 18C9.57421 18 10.2305 18.6 10.725 18.9961C11.2219 19.3968 11.9344 19.9664 11.9344 19.9664C12.0656 20.0718 12.2719 20.0742 12.3914 19.9758L13.1062 19.3758C13.2258 19.275 13.2117 19.1156 13.0734 19.0218C13.0734 19.0218 12.3187 18.525 11.775 18.1406C11.2289 17.7539 10.5375 17.1937 10.5375 17.1937C10.4086 17.0929 10.2094 17.0929 10.0898 17.1914L9.56718 17.6273ZM8.33905 10.2468C8.22421 10.3383 8.21015 10.5047 8.30858 10.6195L8.51718 10.8539C8.6203 10.9664 8.79843 10.9828 8.91562 10.8914L9.33515 10.5609C9.45234 10.4672 9.46405 10.3031 9.35858 10.1929L9.14062 9.96325C9.03749 9.8531 8.85937 9.83669 8.73984 9.93044L8.33905 10.2468ZM10.3758 12.3797C10.2562 12.4734 10.2516 12.6351 10.3664 12.7406L10.8164 13.1531C10.9336 13.2586 11.1258 13.2679 11.2476 13.1765L11.7328 12.8015C11.8523 12.7078 11.8547 12.5484 11.7351 12.4453L11.2664 12.0375C11.1492 11.932 10.957 11.925 10.8375 12.0164L10.3758 12.3797ZM13.057 13.8468C13.1789 13.7531 13.1742 13.5984 13.0453 13.5023L12.6 13.1578C12.4734 13.0593 12.2719 13.0547 12.15 13.1484L11.6555 13.5281C11.5359 13.6218 11.5359 13.7789 11.6578 13.882L12.0891 14.2312C12.2133 14.332 12.4148 14.3367 12.5367 14.2429L13.057 13.8468ZM14.5172 14.8453C14.6414 14.7515 14.6297 14.6015 14.4914 14.5125L13.9805 14.1726C13.8469 14.0812 13.6359 14.0836 13.5141 14.1773L12.982 14.5804C12.8601 14.6718 12.8672 14.8265 12.9961 14.9226L13.4859 15.2695C13.6195 15.3633 13.8328 15.3633 13.9547 15.2695L14.5172 14.8453ZM8.40233 9.5531C8.51952 9.46169 8.53593 9.29294 8.43749 9.1781L8.07187 8.75153C7.97812 8.63669 7.80937 8.62028 7.69452 8.71403L7.33593 9.007C7.22343 9.10075 7.20233 9.27185 7.29374 9.38904L7.63358 9.8156C7.72733 9.93278 7.89843 9.95153 8.01562 9.86013L8.40233 9.5531ZM15.5039 15.1289C15.3609 15.0468 15.1406 15.0586 15.0141 15.1523L14.4375 15.5883C14.3133 15.682 14.3273 15.8297 14.4656 15.9164L15.5367 16.5445C15.682 16.6265 15.9 16.6125 16.0195 16.5117L16.6219 16.0125C16.7437 15.9117 16.718 15.7664 16.568 15.6914L15.5039 15.1289ZM10.4531 11.6648C10.5703 11.5734 10.5773 11.4093 10.4672 11.3015L10.1062 10.9523C9.99843 10.8445 9.81093 10.8328 9.69374 10.9242L9.26249 11.2617C9.14296 11.3531 9.13593 11.5195 9.23905 11.6297L9.58593 11.9836C9.69609 12.0937 9.88124 12.1078 10.0008 12.014L10.4531 11.6648ZM10.2961 15.7617C10.3359 15.764 10.3711 15.7593 10.4062 15.7429C10.5797 15.6633 10.9851 15.2859 11.0367 15.2461C11.2312 15.0937 11.1961 14.9742 11.0555 14.8687C10.9523 14.7914 10.8586 14.707 10.7601 14.625C10.568 14.4656 9.6539 13.8679 8.35312 12.4523C7.22577 11.2265 6.49687 10.1437 6.44765 10.0781C6.41249 10.0265 6.37968 9.96794 6.32577 9.93278C6.22499 9.86716 6.11015 10.0125 6.04218 10.0687L5.79374 10.275L5.63905 10.4015C5.5453 10.4812 5.5664 10.5843 5.62733 10.6781C5.68593 10.7672 5.74687 10.8562 5.80546 10.9453C5.9414 11.1468 6.07968 11.3484 6.22265 11.5453C6.40077 11.7914 6.58593 12.0328 6.77577 12.2742C6.99843 12.5554 7.23046 12.8343 7.46952 13.1062C8.04777 13.7654 8.66116 14.3929 9.30702 14.9859C9.48983 15.1547 9.67733 15.3211 9.86718 15.4828C9.9539 15.5578 10.0476 15.6586 10.1461 15.7172C10.193 15.7383 10.2445 15.757 10.2961 15.7617ZM9.5578 16.4437C9.5578 16.3617 9.46171 16.2937 9.40546 16.2422C9.33046 16.1765 9.25546 16.1086 9.1828 16.0406C9.03983 15.907 8.89452 15.7734 8.7539 15.6398C8.40702 15.3093 8.07187 14.9718 7.74608 14.6297C7.45312 14.3203 7.16952 14.0039 6.89296 13.6851C6.65155 13.4062 6.41483 13.1179 6.18749 12.8297C5.9953 12.5836 5.8078 12.3351 5.62499 12.082C5.47968 11.8804 5.33437 11.6742 5.19608 11.4679C5.14218 11.3859 5.08593 11.3015 5.03202 11.2172C5.00858 11.1797 4.98515 11.1445 4.96171 11.107C4.93358 11.0625 4.88905 10.9945 4.8328 10.9922C4.74843 10.9898 4.71093 11.0508 4.64999 11.1023C4.5539 11.1797 4.46015 11.257 4.36405 11.3367C4.31718 11.3742 4.2703 11.414 4.22343 11.4539C4.05702 11.5898 4.1578 11.7 4.2539 11.8523C4.3078 11.9367 4.36171 12.0211 4.41327 12.1031C4.54452 12.307 4.67812 12.5062 4.8164 12.7054C4.98515 12.9492 5.16093 13.1906 5.33905 13.432C5.55233 13.7133 5.76796 13.9898 5.99062 14.2664C6.24374 14.5804 6.50858 14.8922 6.77812 15.1992C7.08046 15.5414 7.39218 15.8812 7.71093 16.214C7.86796 16.3804 8.02968 16.5422 8.1914 16.7062C8.26171 16.7765 8.32968 16.8468 8.39999 16.9172C8.59218 17.1117 8.74218 17.1703 8.96249 17.0039C9.07734 16.9195 9.18515 16.8281 9.2953 16.7367C9.37968 16.6593 9.56015 16.5679 9.5578 16.4437Z" fill="#2F2F2F"/>
</svg>
