<svg width="20" height="24" viewBox="0 0 20 24" fill="none" xmlns="http://www.w3.org/2000/svg">
<path d="M16.6667 13.1118L20 16.4452V20.8896C20 21.479 19.7659 22.0442 19.3491 22.461C18.9324 22.8777 18.3671 23.1118 17.7778 23.1118H2.22222C1.63285 23.1118 1.06762 22.8777 0.650874 22.461C0.234126 22.0442 0 21.479 0 20.8896V16.4452L3.33333 13.1118H4.25556L6.47778 15.3341H4.2L2.22222 17.5563H17.7778L15.8111 15.3341H13.6889L15.9111 13.1118H16.6667ZM17.7778 20.8896V19.7785H2.22222V20.8896H17.7778ZM9.26667 15.3341L3.76667 9.85628C3.66366 9.75349 3.58194 9.63139 3.52619 9.49697C3.47043 9.36256 3.44173 9.21847 3.44173 9.07295C3.44173 8.92743 3.47043 8.78334 3.52619 8.64892C3.58194 8.51451 3.66366 8.39241 3.76667 8.28961L10.8444 1.21184C10.9462 1.10839 11.0677 1.02644 11.2017 0.970834C11.3357 0.915231 11.4795 0.887114 11.6246 0.88815C11.7697 0.889187 11.9131 0.919355 12.0463 0.976867C12.1795 1.03438 12.2998 1.11806 12.4 1.22295L17.9 6.72295C18.3333 7.15628 18.3333 7.85628 17.9 8.28961L10.8333 15.3341C10.7335 15.4421 10.6123 15.5283 10.4775 15.5873C10.3427 15.6463 10.1971 15.6767 10.05 15.6767C9.90286 15.6767 9.75731 15.6463 9.6225 15.5873C9.48769 15.5283 9.36654 15.4421 9.26667 15.3341ZM11.6222 3.56739L6.11111 9.06739L10.0556 13.0007L15.5556 7.50073L11.6222 3.56739Z" fill="#D2D2D2"/>
</svg>
